<mxfile host="app.diagrams.net" modified="2021-04-10T08:36:00.185Z" agent="5.0 (Windows)" etag="qqwUQxNNXt76SDLGsaQI" version="14.5.8" type="github">
  <diagram name="CovidDiagram" id="74e2e168-ea6b-b213-b513-2b3c1d86103e">
    <mxGraphModel dx="1422" dy="763" grid="1" gridSize="10" guides="1" tooltips="1" connect="1" arrows="1" fold="1" page="1" pageScale="1" pageWidth="1100" pageHeight="850" background="#A9C4EB" math="0" shadow="0">
      <root>
        <mxCell id="0" />
        <mxCell id="1" parent="0" />
        <object label="Client EXE" id="osUVIYHNnvs2F1HaOJgH-3">
          <mxCell style="rounded=1;whiteSpace=wrap;html=1;fillColor=#fff2cc;strokeColor=#d6b656;" vertex="1" parent="1">
            <mxGeometry x="290" y="280" width="120" height="60" as="geometry" />
          </mxCell>
        </object>
        <mxCell id="osUVIYHNnvs2F1HaOJgH-9" value="" style="edgeStyle=orthogonalEdgeStyle;rounded=0;orthogonalLoop=1;jettySize=auto;html=1;strokeColor=#FF0D0D;" edge="1" parent="1">
          <mxGeometry relative="1" as="geometry">
            <mxPoint x="180" y="310" as="sourcePoint" />
            <mxPoint x="280" y="310" as="targetPoint" />
          </mxGeometry>
        </mxCell>
        <object label="Powershell" id="osUVIYHNnvs2F1HaOJgH-5">
          <mxCell style="rounded=1;whiteSpace=wrap;html=1;fillColor=#fff2cc;strokeColor=#d6b656;" vertex="1" parent="1">
            <mxGeometry x="50" y="280" width="120" height="60" as="geometry" />
          </mxCell>
        </object>
        <object label="CovidFramework.com" id="osUVIYHNnvs2F1HaOJgH-11">
          <mxCell style="rounded=1;whiteSpace=wrap;html=1;fillColor=#fff2cc;strokeColor=#d6b656;" vertex="1" parent="1">
            <mxGeometry x="40" y="480" width="130" height="60" as="geometry" />
          </mxCell>
        </object>
        <object label="C2" id="osUVIYHNnvs2F1HaOJgH-14">
          <mxCell style="rounded=1;whiteSpace=wrap;html=1;fillColor=#ffe6cc;strokeColor=#d79b00;" vertex="1" parent="1">
            <mxGeometry x="520" y="410" width="120" height="60" as="geometry" />
          </mxCell>
        </object>
        <mxCell id="osUVIYHNnvs2F1HaOJgH-15" value="" style="edgeStyle=orthogonalEdgeStyle;rounded=0;orthogonalLoop=1;jettySize=auto;html=1;strokeColor=#FF0D0D;" edge="1" parent="1">
          <mxGeometry relative="1" as="geometry">
            <mxPoint x="180" y="510" as="sourcePoint" />
            <mxPoint x="583" y="480" as="targetPoint" />
            <Array as="points">
              <mxPoint x="583" y="510" />
            </Array>
          </mxGeometry>
        </mxCell>
        <mxCell id="osUVIYHNnvs2F1HaOJgH-17" value="" style="edgeStyle=orthogonalEdgeStyle;rounded=0;orthogonalLoop=1;jettySize=auto;html=1;fillColor=#FF1F17;strokeColor=#FF0D0D;" edge="1" parent="1">
          <mxGeometry relative="1" as="geometry">
            <mxPoint x="420" y="309.5" as="sourcePoint" />
            <mxPoint x="580" y="400" as="targetPoint" />
          </mxGeometry>
        </mxCell>
        <mxCell id="osUVIYHNnvs2F1HaOJgH-22" value="" style="edgeStyle=orthogonalEdgeStyle;rounded=0;orthogonalLoop=1;jettySize=auto;html=1;strokeColor=#FF0D0D;" edge="1" parent="1">
          <mxGeometry relative="1" as="geometry">
            <mxPoint x="650" y="440" as="sourcePoint" />
            <mxPoint x="360" y="270" as="targetPoint" />
            <Array as="points">
              <mxPoint x="650" y="440" />
              <mxPoint x="760" y="440" />
              <mxPoint x="760" y="250" />
              <mxPoint x="360" y="250" />
            </Array>
          </mxGeometry>
        </mxCell>
        <mxCell id="osUVIYHNnvs2F1HaOJgH-23" value="Command" style="text;html=1;strokeColor=none;fillColor=none;align=center;verticalAlign=middle;whiteSpace=wrap;rounded=0;rotation=0;strokeWidth=4;shadow=0;fontStyle=1" vertex="1" parent="1">
          <mxGeometry x="325" y="480" width="95" height="20" as="geometry" />
        </mxCell>
        <mxCell id="osUVIYHNnvs2F1HaOJgH-24" value="Response" style="text;html=1;strokeColor=none;fillColor=none;align=center;verticalAlign=middle;whiteSpace=wrap;rounded=0;rotation=-90;strokeWidth=4;shadow=0;fontStyle=1" vertex="1" parent="1">
          <mxGeometry x="540" y="340" width="50" height="20" as="geometry" />
        </mxCell>
        <mxCell id="osUVIYHNnvs2F1HaOJgH-28" value="Command" style="text;html=1;strokeColor=none;fillColor=none;align=center;verticalAlign=middle;whiteSpace=wrap;rounded=0;rotation=-90;strokeWidth=4;shadow=0;fontStyle=1" vertex="1" parent="1">
          <mxGeometry x="723" y="336" width="50" height="20" as="geometry" />
        </mxCell>
        <mxCell id="osUVIYHNnvs2F1HaOJgH-32" value="" style="shape=table;html=1;whiteSpace=wrap;startSize=0;container=1;collapsible=0;childLayout=tableLayout;" vertex="1" parent="1">
          <mxGeometry x="300" y="530" width="190" height="280" as="geometry" />
        </mxCell>
        <mxCell id="osUVIYHNnvs2F1HaOJgH-33" value="" style="shape=partialRectangle;html=1;whiteSpace=wrap;collapsible=0;dropTarget=0;pointerEvents=0;fillColor=none;top=0;left=0;bottom=0;right=0;points=[[0,0.5],[1,0.5]];portConstraint=eastwest;" vertex="1" parent="osUVIYHNnvs2F1HaOJgH-32">
          <mxGeometry width="190" height="27" as="geometry" />
        </mxCell>
        <mxCell id="osUVIYHNnvs2F1HaOJgH-34" value="&lt;div&gt;Command&lt;br&gt;&lt;/div&gt;" style="shape=partialRectangle;html=1;whiteSpace=wrap;connectable=0;overflow=hidden;fillColor=none;top=0;left=0;bottom=0;right=0;" vertex="1" parent="osUVIYHNnvs2F1HaOJgH-33">
          <mxGeometry width="95" height="27" as="geometry" />
        </mxCell>
        <mxCell id="osUVIYHNnvs2F1HaOJgH-35" value="Description" style="shape=partialRectangle;html=1;whiteSpace=wrap;connectable=0;overflow=hidden;fillColor=none;top=0;left=0;bottom=0;right=0;" vertex="1" parent="osUVIYHNnvs2F1HaOJgH-33">
          <mxGeometry x="95" width="95" height="27" as="geometry" />
        </mxCell>
        <mxCell id="osUVIYHNnvs2F1HaOJgH-36" value="" style="shape=partialRectangle;html=1;whiteSpace=wrap;collapsible=0;dropTarget=0;pointerEvents=0;fillColor=none;top=0;left=0;bottom=0;right=0;points=[[0,0.5],[1,0.5]];portConstraint=eastwest;" vertex="1" parent="osUVIYHNnvs2F1HaOJgH-32">
          <mxGeometry y="27" width="190" height="28" as="geometry" />
        </mxCell>
        <mxCell id="osUVIYHNnvs2F1HaOJgH-37" value="" style="shape=partialRectangle;html=1;whiteSpace=wrap;connectable=0;overflow=hidden;fillColor=none;top=0;left=0;bottom=0;right=0;" vertex="1" parent="osUVIYHNnvs2F1HaOJgH-36">
          <mxGeometry width="95" height="28" as="geometry" />
        </mxCell>
        <mxCell id="osUVIYHNnvs2F1HaOJgH-38" value="" style="shape=partialRectangle;html=1;whiteSpace=wrap;connectable=0;overflow=hidden;fillColor=none;top=0;left=0;bottom=0;right=0;" vertex="1" parent="osUVIYHNnvs2F1HaOJgH-36">
          <mxGeometry x="95" width="95" height="28" as="geometry" />
        </mxCell>
        <mxCell id="osUVIYHNnvs2F1HaOJgH-39" value="" style="shape=partialRectangle;html=1;whiteSpace=wrap;collapsible=0;dropTarget=0;pointerEvents=0;fillColor=none;top=0;left=0;bottom=0;right=0;points=[[0,0.5],[1,0.5]];portConstraint=eastwest;" vertex="1" parent="osUVIYHNnvs2F1HaOJgH-32">
          <mxGeometry y="55" width="190" height="34" as="geometry" />
        </mxCell>
        <mxCell id="osUVIYHNnvs2F1HaOJgH-40" value="" style="shape=partialRectangle;html=1;whiteSpace=wrap;connectable=0;overflow=hidden;fillColor=none;top=0;left=0;bottom=0;right=0;" vertex="1" parent="osUVIYHNnvs2F1HaOJgH-39">
          <mxGeometry width="95" height="34" as="geometry" />
        </mxCell>
        <mxCell id="osUVIYHNnvs2F1HaOJgH-41" value="" style="shape=partialRectangle;html=1;whiteSpace=wrap;connectable=0;overflow=hidden;fillColor=none;top=0;left=0;bottom=0;right=0;" vertex="1" parent="osUVIYHNnvs2F1HaOJgH-39">
          <mxGeometry x="95" width="95" height="34" as="geometry" />
        </mxCell>
        <mxCell id="osUVIYHNnvs2F1HaOJgH-42" value="" style="shape=partialRectangle;html=1;whiteSpace=wrap;collapsible=0;dropTarget=0;pointerEvents=0;fillColor=none;top=0;left=0;bottom=0;right=0;points=[[0,0.5],[1,0.5]];portConstraint=eastwest;" vertex="1" parent="osUVIYHNnvs2F1HaOJgH-32">
          <mxGeometry y="89" width="190" height="27" as="geometry" />
        </mxCell>
        <mxCell id="osUVIYHNnvs2F1HaOJgH-43" value="" style="shape=partialRectangle;html=1;whiteSpace=wrap;connectable=0;overflow=hidden;fillColor=none;top=0;left=0;bottom=0;right=0;" vertex="1" parent="osUVIYHNnvs2F1HaOJgH-42">
          <mxGeometry width="95" height="27" as="geometry" />
        </mxCell>
        <mxCell id="osUVIYHNnvs2F1HaOJgH-44" value="" style="shape=partialRectangle;html=1;whiteSpace=wrap;connectable=0;overflow=hidden;fillColor=none;top=0;left=0;bottom=0;right=0;" vertex="1" parent="osUVIYHNnvs2F1HaOJgH-42">
          <mxGeometry x="95" width="95" height="27" as="geometry" />
        </mxCell>
        <mxCell id="osUVIYHNnvs2F1HaOJgH-45" value="" style="shape=partialRectangle;html=1;whiteSpace=wrap;collapsible=0;dropTarget=0;pointerEvents=0;fillColor=none;top=0;left=0;bottom=0;right=0;points=[[0,0.5],[1,0.5]];portConstraint=eastwest;" vertex="1" parent="osUVIYHNnvs2F1HaOJgH-32">
          <mxGeometry y="116" width="190" height="27" as="geometry" />
        </mxCell>
        <mxCell id="osUVIYHNnvs2F1HaOJgH-46" value="" style="shape=partialRectangle;html=1;whiteSpace=wrap;connectable=0;overflow=hidden;fillColor=none;top=0;left=0;bottom=0;right=0;" vertex="1" parent="osUVIYHNnvs2F1HaOJgH-45">
          <mxGeometry width="95" height="27" as="geometry" />
        </mxCell>
        <mxCell id="osUVIYHNnvs2F1HaOJgH-47" value="" style="shape=partialRectangle;html=1;whiteSpace=wrap;connectable=0;overflow=hidden;fillColor=none;top=0;left=0;bottom=0;right=0;" vertex="1" parent="osUVIYHNnvs2F1HaOJgH-45">
          <mxGeometry x="95" width="95" height="27" as="geometry" />
        </mxCell>
        <mxCell id="osUVIYHNnvs2F1HaOJgH-48" value="" style="shape=partialRectangle;html=1;whiteSpace=wrap;collapsible=0;dropTarget=0;pointerEvents=0;fillColor=none;top=0;left=0;bottom=0;right=0;points=[[0,0.5],[1,0.5]];portConstraint=eastwest;" vertex="1" parent="osUVIYHNnvs2F1HaOJgH-32">
          <mxGeometry y="143" width="190" height="28" as="geometry" />
        </mxCell>
        <mxCell id="osUVIYHNnvs2F1HaOJgH-49" value="" style="shape=partialRectangle;html=1;whiteSpace=wrap;connectable=0;overflow=hidden;fillColor=none;top=0;left=0;bottom=0;right=0;" vertex="1" parent="osUVIYHNnvs2F1HaOJgH-48">
          <mxGeometry width="95" height="28" as="geometry" />
        </mxCell>
        <mxCell id="osUVIYHNnvs2F1HaOJgH-50" value="" style="shape=partialRectangle;html=1;whiteSpace=wrap;connectable=0;overflow=hidden;fillColor=none;top=0;left=0;bottom=0;right=0;" vertex="1" parent="osUVIYHNnvs2F1HaOJgH-48">
          <mxGeometry x="95" width="95" height="28" as="geometry" />
        </mxCell>
        <mxCell id="osUVIYHNnvs2F1HaOJgH-51" value="" style="shape=partialRectangle;html=1;whiteSpace=wrap;collapsible=0;dropTarget=0;pointerEvents=0;fillColor=none;top=0;left=0;bottom=0;right=0;points=[[0,0.5],[1,0.5]];portConstraint=eastwest;" vertex="1" parent="osUVIYHNnvs2F1HaOJgH-32">
          <mxGeometry y="171" width="190" height="27" as="geometry" />
        </mxCell>
        <mxCell id="osUVIYHNnvs2F1HaOJgH-52" value="" style="shape=partialRectangle;html=1;whiteSpace=wrap;connectable=0;overflow=hidden;fillColor=none;top=0;left=0;bottom=0;right=0;" vertex="1" parent="osUVIYHNnvs2F1HaOJgH-51">
          <mxGeometry width="95" height="27" as="geometry" />
        </mxCell>
        <mxCell id="osUVIYHNnvs2F1HaOJgH-53" value="" style="shape=partialRectangle;html=1;whiteSpace=wrap;connectable=0;overflow=hidden;fillColor=none;top=0;left=0;bottom=0;right=0;" vertex="1" parent="osUVIYHNnvs2F1HaOJgH-51">
          <mxGeometry x="95" width="95" height="27" as="geometry" />
        </mxCell>
        <mxCell id="osUVIYHNnvs2F1HaOJgH-54" value="" style="shape=partialRectangle;html=1;whiteSpace=wrap;collapsible=0;dropTarget=0;pointerEvents=0;fillColor=none;top=0;left=0;bottom=0;right=0;points=[[0,0.5],[1,0.5]];portConstraint=eastwest;" vertex="1" parent="osUVIYHNnvs2F1HaOJgH-32">
          <mxGeometry y="198" width="190" height="27" as="geometry" />
        </mxCell>
        <mxCell id="osUVIYHNnvs2F1HaOJgH-55" value="" style="shape=partialRectangle;html=1;whiteSpace=wrap;connectable=0;overflow=hidden;fillColor=none;top=0;left=0;bottom=0;right=0;" vertex="1" parent="osUVIYHNnvs2F1HaOJgH-54">
          <mxGeometry width="95" height="27" as="geometry" />
        </mxCell>
        <mxCell id="osUVIYHNnvs2F1HaOJgH-56" value="" style="shape=partialRectangle;html=1;whiteSpace=wrap;connectable=0;overflow=hidden;fillColor=none;top=0;left=0;bottom=0;right=0;" vertex="1" parent="osUVIYHNnvs2F1HaOJgH-54">
          <mxGeometry x="95" width="95" height="27" as="geometry" />
        </mxCell>
        <mxCell id="osUVIYHNnvs2F1HaOJgH-57" value="" style="shape=partialRectangle;html=1;whiteSpace=wrap;collapsible=0;dropTarget=0;pointerEvents=0;fillColor=none;top=0;left=0;bottom=0;right=0;points=[[0,0.5],[1,0.5]];portConstraint=eastwest;" vertex="1" parent="osUVIYHNnvs2F1HaOJgH-32">
          <mxGeometry y="225" width="190" height="28" as="geometry" />
        </mxCell>
        <mxCell id="osUVIYHNnvs2F1HaOJgH-58" value="" style="shape=partialRectangle;html=1;whiteSpace=wrap;connectable=0;overflow=hidden;fillColor=none;top=0;left=0;bottom=0;right=0;" vertex="1" parent="osUVIYHNnvs2F1HaOJgH-57">
          <mxGeometry width="95" height="28" as="geometry" />
        </mxCell>
        <mxCell id="osUVIYHNnvs2F1HaOJgH-59" value="" style="shape=partialRectangle;html=1;whiteSpace=wrap;connectable=0;overflow=hidden;fillColor=none;top=0;left=0;bottom=0;right=0;" vertex="1" parent="osUVIYHNnvs2F1HaOJgH-57">
          <mxGeometry x="95" width="95" height="28" as="geometry" />
        </mxCell>
        <mxCell id="osUVIYHNnvs2F1HaOJgH-60" value="" style="shape=partialRectangle;html=1;whiteSpace=wrap;collapsible=0;dropTarget=0;pointerEvents=0;fillColor=none;top=0;left=0;bottom=0;right=0;points=[[0,0.5],[1,0.5]];portConstraint=eastwest;" vertex="1" parent="osUVIYHNnvs2F1HaOJgH-32">
          <mxGeometry y="253" width="190" height="27" as="geometry" />
        </mxCell>
        <mxCell id="osUVIYHNnvs2F1HaOJgH-61" value="" style="shape=partialRectangle;html=1;whiteSpace=wrap;connectable=0;overflow=hidden;fillColor=none;top=0;left=0;bottom=0;right=0;" vertex="1" parent="osUVIYHNnvs2F1HaOJgH-60">
          <mxGeometry width="95" height="27" as="geometry" />
        </mxCell>
        <mxCell id="osUVIYHNnvs2F1HaOJgH-62" value="" style="shape=partialRectangle;html=1;whiteSpace=wrap;connectable=0;overflow=hidden;fillColor=none;top=0;left=0;bottom=0;right=0;" vertex="1" parent="osUVIYHNnvs2F1HaOJgH-60">
          <mxGeometry x="95" width="95" height="27" as="geometry" />
        </mxCell>
      </root>
    </mxGraphModel>
  </diagram>
</mxfile>
